<svg id="Layer_1" data-name="Layer 1" xmlns="http://www.w3.org/2000/svg" width="192.78" height="77.24" viewBox="0 0 192.78 77.24"><defs><style>.cls-1{fill:#498174;}</style></defs><path class="cls-1" d="M14.5,18.27a11,11,0,0,1,4.2.8,12,12,0,0,1,3.43,2.1,10.62,10.62,0,0,1,2.3,2.8,6.19,6.19,0,0,1,.82,3l-.65-1.85v-5a1,1,0,0,1,.28-.7.92.92,0,0,1,.72-.3,1,1,0,0,1,.73.3,1,1,0,0,1,.27.7v21.5A13.38,13.38,0,0,1,25,48.22a11,11,0,0,1-4.33,4.3A13.16,13.16,0,0,1,14.3,54a16,16,0,0,1-4-.53A13.24,13.24,0,0,1,6.9,52.17c-.9-.54-1.35-1.1-1.35-1.7a.94.94,0,0,1,.23-.65.77.77,0,0,1,.62-.25,1.2,1.2,0,0,1,.93.55,3.6,3.6,0,0,0,1.52,1l1.23.4a11.42,11.42,0,0,0,1.87.42,15.21,15.21,0,0,0,2.45.18,9.73,9.73,0,0,0,7.48-2.93,10.76,10.76,0,0,0,2.72-7.62v-5l.5.05a10.59,10.59,0,0,1-1.75,3.65,9.84,9.84,0,0,1-2.63,2.42,10.84,10.84,0,0,1-3.09,1.35,12.14,12.14,0,0,1-3.13.43,11.27,11.27,0,0,1-6.17-1.73A12.35,12.35,0,0,1,4,38.09a13.9,13.9,0,0,1-1.6-6.72A14,14,0,0,1,4,24.64,12.2,12.2,0,0,1,8.33,20,11.42,11.42,0,0,1,14.5,18.27Zm.1,1.9a9.63,9.63,0,0,0-5.22,1.45,10.24,10.24,0,0,0-3.66,4A12.31,12.31,0,0,0,4.4,31.37a12.33,12.33,0,0,0,1.32,5.75,10.31,10.31,0,0,0,3.66,4,9.49,9.49,0,0,0,5.22,1.48,9.67,9.67,0,0,0,5.2-1.43,10.17,10.17,0,0,0,3.65-3.95,12.26,12.26,0,0,0,1.35-5.87,12.32,12.32,0,0,0-1.35-5.88,10,10,0,0,0-3.65-3.92A9.83,9.83,0,0,0,14.6,20.17Z"/><path class="cls-1" d="M35.9,44a.92.92,0,0,1-.72-.3,1,1,0,0,1-.28-.7v-23a1,1,0,0,1,1.73-.7,1,1,0,0,1,.27.7v8.45l-.85,1.3a12.55,12.55,0,0,1,.67-3.95,13.4,13.4,0,0,1,2-3.73,10.54,10.54,0,0,1,3.18-2.8,8.6,8.6,0,0,1,4.32-1.07,6.33,6.33,0,0,1,1.5.2.92.92,0,0,1,.8,1,1.11,1.11,0,0,1-.25.75.81.81,0,0,1-.65.3,1.61,1.61,0,0,1-.72-.23A2.73,2.73,0,0,0,45.65,20,6,6,0,0,0,42.5,21a11.08,11.08,0,0,0-2.82,2.52,13.55,13.55,0,0,0-2,3.43,9.52,9.52,0,0,0-.75,3.6V43a1,1,0,0,1-1,1Z"/><path class="cls-1" d="M51.55,45.27a1,1,0,0,1-.68-.3.94.94,0,0,1-.32-.7,1,1,0,0,1,.25-.7l22.35-26.1a.9.9,0,0,1,.75-.4,1,1,0,0,1,1,1,.94.94,0,0,1-.25.7L52.3,44.87A.92.92,0,0,1,51.55,45.27ZM76.2,31.42a13.79,13.79,0,0,1-1.6,6.67,12.25,12.25,0,0,1-4.38,4.7,12.37,12.37,0,0,1-12.62,0,12.27,12.27,0,0,1-4.42-4.7,13.59,13.59,0,0,1-1.63-6.67,13.76,13.76,0,0,1,1.63-6.73A12.34,12.34,0,0,1,57.6,20a12.43,12.43,0,0,1,12.62,0,12.32,12.32,0,0,1,4.38,4.7A14,14,0,0,1,76.2,31.42Zm-2,0a12.2,12.2,0,0,0-1.33-5.78,10.36,10.36,0,0,0-3.65-4,10.33,10.33,0,0,0-10.62,0,10.48,10.48,0,0,0-3.7,4,12.09,12.09,0,0,0-1.35,5.78,11.93,11.93,0,0,0,1.35,5.72,10.34,10.34,0,0,0,3.7,4,10.27,10.27,0,0,0,10.62,0,10.22,10.22,0,0,0,3.65-4A12,12,0,0,0,74.2,31.42Z"/><path class="cls-1" d="M94.5,18.27a9.45,9.45,0,0,1,5.12,1.25,7.34,7.34,0,0,1,2.9,3.4,12,12,0,0,1,.93,4.8V43a1,1,0,0,1-1.73.7,1,1,0,0,1-.27-.7V27.92a10,10,0,0,0-.73-3.9,6.06,6.06,0,0,0-2.3-2.8,7.3,7.3,0,0,0-4.12-1,9.5,9.5,0,0,0-4.3,1A10.09,10.09,0,0,0,86.52,24a6.21,6.21,0,0,0-1.37,3.9V43a1,1,0,0,1-1.73.7,1,1,0,0,1-.27-.7v-23a1,1,0,0,1,1-1,.92.92,0,0,1,.72.3,1,1,0,0,1,.28.7V25l-1.25,2.4a6.85,6.85,0,0,1,.95-3.45A10.68,10.68,0,0,1,87.35,21a12.48,12.48,0,0,1,3.42-2A10.37,10.37,0,0,1,94.5,18.27Z"/><path class="cls-1" d="M129.72,27.86c-.64,1.15-1.3,2.42-2,3.79s-1.37,2.81-2.06,4.29-1.39,3-2.08,4.51l-2,4.5a40.21,40.21,0,0,0,4-2.54,29.83,29.83,0,0,0,3.07-2.53,23.53,23.53,0,0,0,2.29-2.5c.65-.83,1.24-1.65,1.76-2.47l.88.69a32,32,0,0,1-2.36,3.13,27.15,27.15,0,0,1-2.82,2.87,38.84,38.84,0,0,1-3.5,2.76c-1.29.91-2.75,1.85-4.36,2.81-.58,1.28-1.14,2.49-1.68,3.62s-1,2.16-1.52,3.07a35.52,35.52,0,0,1-2.68,4.34,27.79,27.79,0,0,1-3,3.53,15.46,15.46,0,0,1-3,2.37,5.52,5.52,0,0,1-2.76.87,2.7,2.7,0,0,1-1-.18,2.56,2.56,0,0,1-.87-.51,2.33,2.33,0,0,1-.62-.89,3.29,3.29,0,0,1-.24-1.33,9,9,0,0,1,1-4.05,15.39,15.39,0,0,1,2.86-3.92,28.3,28.3,0,0,1,4.59-3.74,49.29,49.29,0,0,1,6.19-3.47c.54-1.11,1-2.15,1.49-3.11s.92-1.9,1.39-2.83,1-1.86,1.48-2.79,1.09-1.94,1.73-3,1.37-2.24,2.17-3.49,1.74-2.65,2.8-4.2ZM106,63.67a3.92,3.92,0,0,0,2.5-1A14.64,14.64,0,0,0,111,59.74a46.74,46.74,0,0,0,2.66-4.5q1.38-2.62,2.94-5.83l-1,.57A28.23,28.23,0,0,0,111,53a25.72,25.72,0,0,0-3.45,3.35,16.64,16.64,0,0,0-2.18,3.22,6.21,6.21,0,0,0-.75,2.59,1.71,1.71,0,0,0,.33,1.07A1.26,1.26,0,0,0,106,63.67Zm27.12-40A4.86,4.86,0,0,1,132,24.8a1.83,1.83,0,0,1-1.1.47.73.73,0,0,1-.64-.31,1.23,1.23,0,0,1-.22-.72,2.91,2.91,0,0,1,.18-.92,4.55,4.55,0,0,1,.47-1,3.22,3.22,0,0,1,.72-.83,1.36,1.36,0,0,1,.88-.34,1.14,1.14,0,0,1,.89.39,1.22,1.22,0,0,1,.36.83A2.3,2.3,0,0,1,133.11,23.63Z"/><path class="cls-1" d="M144.1,38.7Q143,40,141.88,41.13a18.43,18.43,0,0,1-2.19,1.9,10.93,10.93,0,0,1-2.16,1.25,5.59,5.59,0,0,1-2.17.45,4,4,0,0,1-1.67-.33,3.88,3.88,0,0,1-1.3-.93,4.07,4.07,0,0,1-.84-1.47,5.86,5.86,0,0,1-.29-1.94A8.88,8.88,0,0,1,132,36.6a19.87,19.87,0,0,1,1.88-3.47,29.69,29.69,0,0,1,2.51-3.2c.92-1,1.8-1.9,2.63-2.68l1,.73c-.59.86-1.24,1.84-2,2.93s-1.4,2.22-2,3.38a27.23,27.23,0,0,0-1.62,3.49,9.22,9.22,0,0,0-.66,3.24,3.59,3.59,0,0,0,.38,1.7,1.48,1.48,0,0,0,1.45.71,4.79,4.79,0,0,0,2.58-.93,18.57,18.57,0,0,0,2.88-2.41A38.84,38.84,0,0,0,144,36.73q1.49-1.86,2.8-3.77t2.4-3.64c.73-1.15,1.32-2.14,1.77-2.95l1.78.88Q151.35,30,150,32.43t-2.32,4.33c-.67,1.27-1.21,2.38-1.61,3.33a6.18,6.18,0,0,0-.6,2.24,1,1,0,0,0,.15.57.53.53,0,0,0,.46.22,3.3,3.3,0,0,0,2-.79,14.91,14.91,0,0,0,2.2-2,31.6,31.6,0,0,0,2.17-2.68c.71-1,1.35-1.87,1.92-2.72l.88.69-.61,1c-.31.5-.69,1.08-1.15,1.73s-1,1.34-1.56,2.05a19.44,19.44,0,0,1-1.86,2,10.41,10.41,0,0,1-2,1.46,4.32,4.32,0,0,1-2.08.57,2.88,2.88,0,0,1-1.13-.21,2.63,2.63,0,0,1-.85-.59,2.89,2.89,0,0,1-.53-.86,2.69,2.69,0,0,1-.2-1,5.22,5.22,0,0,1,.21-1.39A10.75,10.75,0,0,1,144.1,38.7Z"/><path class="cls-1" d="M172.08,8.5a2.32,2.32,0,0,1,1.42.41,1.73,1.73,0,0,1,.58,1.51,6.41,6.41,0,0,1-.31,1.81,19.61,19.61,0,0,1-.83,2.28c-.35.83-.76,1.69-1.23,2.59s-1,1.81-1.53,2.7-1.11,1.77-1.71,2.61-1.18,1.63-1.76,2.35q-1.77,2.18-3,3.66L161.46,31c-.62.69-1.14,1.25-1.57,1.68s-.79.8-1.12,1.11l-.9.84c-.28.25-.56.54-.86.84a8,8,0,0,0-.18,1.78c0,.56,0,1.07,0,1.55a5.69,5.69,0,0,0,.69,3.14,2.16,2.16,0,0,0,1.92,1,3.65,3.65,0,0,0,1.68-.43,8.64,8.64,0,0,0,1.67-1.11,14.56,14.56,0,0,0,1.61-1.55c.52-.58,1-1.16,1.48-1.76s.88-1.16,1.25-1.72l1-1.44.9.69-.47.77c-.27.44-.62,1-1.06,1.62s-1,1.31-1.57,2A18.51,18.51,0,0,1,164,42a11.43,11.43,0,0,1-2.21,1.54,5,5,0,0,1-2.35.61,5,5,0,0,1-1.92-.38,4.2,4.2,0,0,1-1.61-1.19,6.39,6.39,0,0,1-1.13-2.09,9.81,9.81,0,0,1-.42-3.05,21.94,21.94,0,0,1,.52-4.65,37,37,0,0,1,1.43-4.89,44.69,44.69,0,0,1,2.12-4.84q1.23-2.4,2.6-4.56a43.24,43.24,0,0,1,2.89-4,31.12,31.12,0,0,1,3-3.19,15.58,15.58,0,0,1,2.8-2.1A5.05,5.05,0,0,1,172.08,8.5ZM157.45,33.25c1.39-1.43,2.72-2.88,4-4.36s2.5-2.93,3.64-4.37,2.16-2.84,3.11-4.19,1.75-2.65,2.42-3.85a26.42,26.42,0,0,0,1.56-3.3,7.52,7.52,0,0,0,.56-2.56,1.14,1.14,0,0,0-.2-.52.55.55,0,0,0-.46-.33,3.63,3.63,0,0,0-2,1,19.81,19.81,0,0,0-2.7,2.72,48.07,48.07,0,0,0-3,4,50.87,50.87,0,0,0-2.92,4.91,52.63,52.63,0,0,0-2.44,5.4A31.33,31.33,0,0,0,157.45,33.25Z"/></svg>
